<svg width="100" height="100" viewBox="0 0 100 100" fill="none" xmlns="http://www.w3.org/2000/svg">
<rect width="100" height="100" rx="50" fill="white"/>
<path d="M30.8933 39.962C33.1079 39.962 34.9046 40.7247 36.2833 42.25C37.6766 43.7607 38.3733 45.7333 38.3733 48.168C38.3733 50.6027 37.6766 52.5827 36.2833 54.108C34.8899 55.6187 33.0786 56.374 30.8493 56.374C28.6053 56.374 26.7866 55.6187 25.3933 54.108C24.0146 52.5973 23.3253 50.6173 23.3253 48.168C23.3253 45.792 23.9999 43.834 25.3493 42.294C26.7133 40.7393 28.5613 39.962 30.8933 39.962ZM30.8493 42.272C29.4119 42.272 28.2606 42.8073 27.3953 43.878C26.5299 44.934 26.0973 46.3493 26.0973 48.124C26.0973 49.9427 26.5226 51.3873 27.3733 52.458C28.2386 53.5287 29.4119 54.064 30.8933 54.064C32.3159 54.064 33.4526 53.5287 34.3033 52.458C35.1686 51.3727 35.6013 49.9353 35.6013 48.146C35.6013 46.3567 35.1686 44.934 34.3033 43.878C33.4526 42.8073 32.3013 42.272 30.8493 42.272ZM42.9221 44.648V46.166C43.6848 44.934 44.9168 44.318 46.6181 44.318C48.1874 44.318 49.4414 44.868 50.3801 45.968C51.3188 47.068 51.7881 48.5347 51.7881 50.368C51.7881 52.1573 51.3261 53.5947 50.4021 54.68C49.4928 55.7507 48.2754 56.286 46.7501 56.286C45.1368 56.286 43.9048 55.692 43.0541 54.504V60.202H40.5681V44.648H42.9221ZM46.1121 46.342C45.1294 46.342 44.3594 46.694 43.8021 47.398C43.2448 48.102 42.9661 49.0773 42.9661 50.324C42.9661 51.556 43.2448 52.524 43.8021 53.228C44.3741 53.932 45.1588 54.284 46.1561 54.284C47.1094 54.284 47.8648 53.932 48.4221 53.228C48.9794 52.524 49.2581 51.5707 49.2581 50.368C49.2581 49.136 48.9721 48.1607 48.4001 47.442C47.8428 46.7087 47.0801 46.342 46.1121 46.342ZM64.1373 52.458C63.8587 53.69 63.25 54.6507 62.3113 55.34C61.3873 56.0293 60.28 56.374 58.9893 56.374C57.2733 56.374 55.9093 55.824 54.8973 54.724C53.9 53.6093 53.4013 52.1867 53.4013 50.456C53.4013 48.6813 53.9147 47.2147 54.9413 46.056C55.9827 44.8973 57.3027 44.318 58.9013 44.318C60.5587 44.318 61.8713 44.89 62.8393 46.034C63.8073 47.1633 64.2913 48.7107 64.2913 50.676V50.94H55.9093C55.9387 52.084 56.2247 52.9713 56.7673 53.602C57.31 54.218 58.0653 54.526 59.0333 54.526C59.7227 54.526 60.28 54.3647 60.7053 54.042C61.1453 53.7047 61.49 53.1767 61.7393 52.458H64.1373ZM61.7833 49.268C61.71 48.3147 61.4093 47.5667 60.8813 47.024C60.368 46.4667 59.7007 46.188 58.8793 46.188C58.058 46.188 57.3907 46.452 56.8773 46.98C56.3787 47.508 56.0707 48.2707 55.9533 49.268H61.7833ZM68.5959 44.648V46.32C69.5053 45 70.7593 44.34 72.3579 44.34C73.6486 44.34 74.6093 44.692 75.2399 45.396C75.8853 46.1 76.2079 47.112 76.2079 48.432V56H73.6999V49.4C73.6999 48.9453 73.6779 48.5713 73.6339 48.278C73.5899 47.97 73.4946 47.662 73.3479 47.354C73.2159 47.046 72.9959 46.8187 72.6879 46.672C72.3799 46.5107 71.9839 46.43 71.4999 46.43C69.6519 46.43 68.7279 47.5813 68.7279 49.884V56H66.2199V44.648H68.5959Z" fill="black"/>
</svg>
