<svg width="100" height="100" viewBox="0 0 100 100" fill="none" xmlns="http://www.w3.org/2000/svg">
<rect width="100" height="100" rx="50" fill="white"/>
<path d="M43.5566 33.956H40.9386C40.7772 32.1227 39.6406 31.206 37.5286 31.206C36.5899 31.206 35.8566 31.404 35.3286 31.8C34.8006 32.1813 34.5366 32.7093 34.5366 33.384C34.5366 34.0147 34.7272 34.4473 35.1086 34.682C35.5046 34.9167 36.3699 35.2027 37.7046 35.54C38.0566 35.6427 38.3279 35.716 38.5186 35.76C40.2639 36.2 41.4519 36.596 42.0826 36.948C43.4759 37.696 44.1726 38.862 44.1726 40.446C44.1726 41.1353 44.0552 41.7587 43.8206 42.316C43.5859 42.8733 43.2706 43.3427 42.8746 43.724C42.4786 44.0907 42.0092 44.3987 41.4666 44.648C40.9239 44.8973 40.3592 45.0733 39.7726 45.176C39.1859 45.2933 38.5772 45.352 37.9466 45.352C35.9812 45.352 34.3899 44.8827 33.1726 43.944C31.9552 43.0053 31.3466 41.6267 31.3466 39.808H34.0526C34.0526 40.952 34.4266 41.8027 35.1746 42.36C35.9226 42.9027 36.8979 43.174 38.1006 43.174C39.1566 43.174 39.9779 42.9613 40.5646 42.536C41.1659 42.096 41.4666 41.4873 41.4666 40.71C41.4666 40.2113 41.3052 39.808 40.9826 39.5C40.6746 39.1773 40.3372 38.95 39.9706 38.818C39.6039 38.686 38.9659 38.5027 38.0566 38.268C37.9539 38.2387 37.8732 38.2167 37.8146 38.202C35.8639 37.7033 34.5806 37.2927 33.9646 36.97C32.6886 36.31 32.0066 35.2907 31.9186 33.912C31.9186 33.8093 31.9186 33.7067 31.9186 33.604C31.9186 32.2107 32.4392 31.1033 33.4806 30.282C34.5366 29.446 35.9446 29.028 37.7046 29.028C39.4059 29.028 40.7919 29.4313 41.8626 30.238C42.9332 31.0447 43.4979 32.284 43.5566 33.956ZM56.3922 41.458C56.1135 42.69 55.5049 43.6507 54.5662 44.34C53.6422 45.0293 52.5349 45.374 51.2442 45.374C49.5282 45.374 48.1642 44.824 47.1522 43.724C46.1549 42.6093 45.6562 41.1867 45.6562 39.456C45.6562 37.6813 46.1695 36.2147 47.1962 35.056C48.2375 33.8973 49.5575 33.318 51.1562 33.318C52.8135 33.318 54.1262 33.89 55.0942 35.034C56.0622 36.1633 56.5462 37.7107 56.5462 39.676V39.94H48.1642C48.1935 41.084 48.4795 41.9713 49.0222 42.602C49.5649 43.218 50.3202 43.526 51.2882 43.526C51.9775 43.526 52.5349 43.3647 52.9602 43.042C53.4002 42.7047 53.7449 42.1767 53.9942 41.458H56.3922ZM54.0382 38.268C53.9649 37.3147 53.6642 36.5667 53.1362 36.024C52.6229 35.4667 51.9555 35.188 51.1342 35.188C50.3129 35.188 49.6455 35.452 49.1322 35.98C48.6335 36.508 48.3255 37.2707 48.2082 38.268H54.0382ZM68.6168 41.458C68.3381 42.69 67.7295 43.6507 66.7908 44.34C65.8668 45.0293 64.7595 45.374 63.4688 45.374C61.7528 45.374 60.3888 44.824 59.3768 43.724C58.3795 42.6093 57.8808 41.1867 57.8808 39.456C57.8808 37.6813 58.3941 36.2147 59.4208 35.056C60.4621 33.8973 61.7821 33.318 63.3808 33.318C65.0381 33.318 66.3508 33.89 67.3188 35.034C68.2868 36.1633 68.7708 37.7107 68.7708 39.676V39.94H60.3888C60.4181 41.084 60.7041 41.9713 61.2468 42.602C61.7895 43.218 62.5448 43.526 63.5128 43.526C64.2021 43.526 64.7595 43.3647 65.1848 43.042C65.6248 42.7047 65.9695 42.1767 66.2188 41.458H68.6168ZM66.2628 38.268C66.1895 37.3147 65.8888 36.5667 65.3608 36.024C64.8475 35.4667 64.1801 35.188 63.3588 35.188C62.5375 35.188 61.8701 35.452 61.3568 35.98C60.8581 36.508 60.5501 37.2707 60.4328 38.268H66.2628ZM27.8401 55.648V57.254C28.7787 55.978 29.9667 55.34 31.4041 55.34C32.1521 55.34 32.7974 55.5087 33.3401 55.846C33.8974 56.1833 34.3081 56.66 34.5721 57.276C35.4814 55.9853 36.7061 55.34 38.2461 55.34C39.3167 55.34 40.2041 55.6627 40.9081 56.308C41.6121 56.9387 41.9641 57.8187 41.9641 58.948V67H39.4561V60.026C39.4561 59.2193 39.3167 58.5887 39.0381 58.134C38.7594 57.6793 38.2241 57.452 37.4321 57.452C36.6254 57.452 36.0094 57.7087 35.5841 58.222C35.1587 58.7207 34.9461 59.4247 34.9461 60.334V67H32.4381V59.894C32.4381 59.0873 32.3134 58.4787 32.0641 58.068C31.8294 57.6573 31.3307 57.452 30.5681 57.452C29.7174 57.452 29.0721 57.7307 28.6321 58.288C28.1921 58.8307 27.9721 59.5567 27.9721 60.466V67H25.4641V55.648H27.8401ZM49.8426 55.318C51.5733 55.318 52.952 55.8607 53.9786 56.946C55.0053 58.0313 55.5186 59.4907 55.5186 61.324C55.5186 63.172 55.0053 64.6387 53.9786 65.724C52.9666 66.8093 51.588 67.352 49.8426 67.352C48.068 67.352 46.66 66.8093 45.6186 65.724C44.5773 64.6387 44.0566 63.172 44.0566 61.324C44.0566 59.4907 44.5773 58.0313 45.6186 56.946C46.6746 55.8607 48.0826 55.318 49.8426 55.318ZM52.1306 58.376C51.5733 57.6573 50.796 57.298 49.7986 57.298C48.8013 57.298 48.0166 57.6573 47.4446 58.376C46.8726 59.0947 46.5866 60.0773 46.5866 61.324C46.5866 62.6 46.8726 63.5973 47.4446 64.316C48.0166 65.0347 48.8086 65.394 49.8206 65.394C50.8033 65.394 51.5733 65.0347 52.1306 64.316C52.7026 63.5827 52.9886 62.578 52.9886 61.302C52.9886 60.0553 52.7026 59.08 52.1306 58.376ZM64.0497 55.428V57.826C63.6097 57.782 63.3163 57.76 63.1697 57.76C60.9843 57.76 59.8917 59.1753 59.8917 62.006V67H57.4057V55.648H59.7597V57.914C60.5663 56.2273 61.835 55.384 63.5657 55.384L64.0497 55.428ZM75.1373 63.458C74.8587 64.69 74.25 65.6507 73.3113 66.34C72.3873 67.0293 71.28 67.374 69.9893 67.374C68.2733 67.374 66.9093 66.824 65.8973 65.724C64.9 64.6093 64.4013 63.1867 64.4013 61.456C64.4013 59.6813 64.9147 58.2147 65.9413 57.056C66.9827 55.8973 68.3027 55.318 69.9013 55.318C71.5587 55.318 72.8713 55.89 73.8393 57.034C74.8073 58.1633 75.2913 59.7107 75.2913 61.676V61.94H66.9093C66.9387 63.084 67.2247 63.9713 67.7673 64.602C68.31 65.218 69.0653 65.526 70.0333 65.526C70.7227 65.526 71.28 65.3647 71.7053 65.042C72.1453 64.7047 72.49 64.1767 72.7393 63.458H75.1373ZM72.7833 60.268C72.71 59.3147 72.4093 58.5667 71.8813 58.024C71.368 57.4667 70.7007 57.188 69.8793 57.188C69.058 57.188 68.3907 57.452 67.8773 57.98C67.3787 58.508 67.0707 59.2707 66.9533 60.268H72.7833Z" fill="black"/>
</svg>
