<?xml version="1.0" encoding="UTF-8"?>
<svg id="_Слой_1" data-name="Слой 1" xmlns="http://www.w3.org/2000/svg" viewBox="0 0 250.21 250.21">
  <defs>
    <style>
      .cls-1 {
        fill: #0f0f0f;
      }
    </style>
  </defs>
  <path class="cls-1" d="M189.25,130.77c3.05,7.77,4.74,16.23,4.74,25.07,0,17.59-6.64,33.65-17.53,45.84-.9,1.01-1.83,2-2.79,2.96-1.83,1.82-3.77,3.53-5.8,5.14-.98.78-1.98,1.53-3.01,2.26-.99.71-2.01,1.39-3.04,2.04l-1.36,9.16c2.52-1.33,4.97-2.78,7.31-4.37,1.02-.69,2.02-1.41,3-2.15,2.01-1.51,3.95-3.13,5.8-4.83.95-.87,1.88-1.77,2.78-2.7,13.52-13.75,21.88-32.58,21.88-53.34,0-10.42-2.11-20.36-5.91-29.41-1.98,1.51-4,2.96-6.08,4.34Z"/>
  <path class="cls-1" d="M85.35,212.03c-1.02-.73-2.03-1.48-3.01-2.26-2.03-1.61-3.97-3.32-5.8-5.14-.96-.96-1.89-1.95-2.79-2.96-10.89-12.19-17.53-28.25-17.53-45.84,0-8.84,1.69-17.29,4.74-25.07-2.08-1.38-4.1-2.83-6.08-4.34-3.81,9.05-5.91,18.99-5.91,29.41,0,20.76,8.36,39.59,21.88,53.34.91.92,1.83,1.82,2.78,2.7,1.85,1.7,3.78,3.32,5.8,4.83.98.74,1.98,1.46,3,2.15,2.34,1.59,4.79,3.05,7.31,4.37l-1.36-9.16c-1.03-.65-2.04-1.33-3.04-2.04Z"/>
  <path class="cls-1" d="M237.45,32.42c-.04-2.7-.18-5.38-.41-8.03-.05-.6-.08-1.2-.14-1.8-.07-.7-.18-1.39-.27-2.08-.13-1.05-.24-2.11-.4-3.15-.55-3.66-1.28-7.27-2.18-10.81-3.11-2.27-6.28-4.46-9.54-6.55,1.22,3.53,2.25,7.14,3.08,10.82.39,1.73.75,3.48,1.05,5.25.47,2.71.85,5.45,1.11,8.23.12,1.34.23,2.68.31,4.03.11,1.93.17,3.88.17,5.84,0,.88-.04,1.75-.07,2.62-.04,1.5-.1,2.99-.2,4.47-1.96,29.18-15.85,55.12-36.85,72.98-.93.79-1.87,1.56-2.83,2.32-.63-1.04-1.28-2.06-1.96-3.07-2.65-3.94-5.66-7.62-8.98-10.99-.91-.92-1.83-1.82-2.78-2.7-1.85-1.7-3.78-3.32-5.8-4.83-1.03,2.28-2,4.59-2.91,6.93,2.03,1.61,3.97,3.32,5.8,5.14.96.96,1.89,1.95,2.79,2.96,2.2,2.46,4.22,5.07,6.05,7.83.67,1.01,1.31,2.03,1.92,3.08-1,.68-2.01,1.34-3.04,1.99-3.24,2.07-6.6,3.97-10.07,5.68-1.33.66-2.69,1.28-4.05,1.88-2.57,1.13-5.19,2.15-7.87,3.08-1.27.44-2.55.87-3.84,1.26-9.65,2.93-19.87,4.52-30.47,4.52s-20.82-1.59-30.47-4.52c-1.29-.39-2.57-.82-3.84-1.26-2.67-.93-5.3-1.95-7.87-3.08-1.36-.6-2.72-1.22-4.05-1.88-3.47-1.71-6.83-3.61-10.07-5.68-1.02-.65-2.04-1.3-3.04-1.99.62-1.04,1.26-2.07,1.92-3.08,1.83-2.75,3.85-5.37,6.05-7.83.9-1.01,1.83-2,2.79-2.96,1.83-1.82,3.77-3.53,5.8-5.14-.91-2.34-1.88-4.65-2.91-6.93-2.01,1.51-3.95,3.13-5.8,4.83-.95.87-1.88,1.77-2.78,2.7-3.32,3.37-6.33,7.05-8.98,10.99-.68,1.01-1.33,2.03-1.96,3.07-.96-.76-1.9-1.53-2.83-2.32-21-17.86-34.9-43.8-36.85-72.98-.1-1.48-.16-2.97-.2-4.47-.02-.87-.07-1.74-.07-2.62,0-1.96.06-3.9.17-5.84.07-1.35.18-2.69.31-4.03.26-2.78.64-5.52,1.11-8.23.31-1.76.66-3.51,1.05-5.25.84-3.68,1.87-7.29,3.08-10.82-3.25,2.08-6.43,4.27-9.54,6.55-.9,3.54-1.63,7.14-2.18,10.81-.16,1.04-.27,2.1-.4,3.15-.08.7-.19,1.38-.27,2.08-.06.6-.09,1.2-.14,1.8-.23,2.65-.37,5.33-.41,8.03,0,.58-.04,1.15-.04,1.73,0,.82.04,1.63.06,2.44.73,33.8,16.42,63.98,40.73,84.12.95.79,1.93,1.54,2.91,2.3,1.95,1.51,3.93,2.98,5.98,4.36,1.01.68,2.05,1.33,3.08,1.98,4.73,2.97,9.69,5.61,14.86,7.86,1.27.56,2.56,1.08,3.86,1.59,2.49.98,5.01,1.9,7.59,2.7,1.23.38,2.48.72,3.73,1.06,9.43,2.58,19.35,3.98,29.59,3.98s20.15-1.4,29.59-3.98c1.25-.34,2.5-.68,3.73-1.06,2.57-.8,5.09-1.72,7.59-2.7,1.3-.51,2.59-1.03,3.86-1.59,5.17-2.25,10.13-4.89,14.86-7.86,1.03-.65,2.07-1.3,3.08-1.98,2.05-1.38,4.03-2.85,5.98-4.36.98-.76,1.96-1.51,2.91-2.3,24.32-20.15,40.01-50.32,40.73-84.12.02-.82.06-1.62.06-2.44,0-.58-.04-1.16-.04-1.73Z"/>
  <path class="cls-1" d="M165.33,165.7l2.42-16.3-2.6-.39h0s-.98-.15-.98-.15l-3.59-.53h0s-2.53,17.06-2.53,17.06l-2.1,14.13-5.4,36.41-.61,4.14-1.21,8.13-.47,3.15c-.04.29-.11.57-.18.86-1.42,6.19-7.95,10.76-15.61,10.76h-14.73c-7.67,0-14.2-4.57-15.62-10.76-.07-.28-.13-.57-.18-.86l-.47-3.15-1.21-8.13-.61-4.14-5.4-36.41-2.1-14.13-2.53-17.06-3.59.53-.99.15h0s-2.6.39-2.6.39l2.42,16.3,3.62,24.37,1.34,9.03,1.9,12.79.68,4.56,1.29,8.71.63,4.25.44,3c1.51,10.15,11.38,17.8,22.96,17.8h14.73c11.58,0,21.46-7.65,22.96-17.8l.45-3,.63-4.25,1.29-8.71.68-4.56,1.9-12.79,1.34-9.03,3.62-24.37Z"/>
</svg>