<svg width="100" height="100" viewBox="0 0 100 100" fill="none" xmlns="http://www.w3.org/2000/svg">
<rect width="100" height="100" rx="50" fill="white"/>
<path d="M38.1823 50.038C38.0356 51.9593 37.3463 53.4993 36.1143 54.658C34.897 55.802 33.313 56.374 31.3623 56.374C29.1476 56.374 27.373 55.626 26.0383 54.13C24.7036 52.634 24.0363 50.6467 24.0363 48.168C24.0363 46.672 24.3223 45.3153 24.8943 44.098C25.4663 42.866 26.3243 41.876 27.4683 41.128C28.6123 40.3653 29.9543 39.984 31.4943 39.984C33.1516 39.984 34.5963 40.446 35.8283 41.37C37.0603 42.2793 37.801 43.5993 38.0503 45.33H35.3223C35.1316 44.3913 34.6916 43.658 34.0023 43.13C33.313 42.5873 32.4623 42.316 31.4503 42.316C30.409 42.316 29.5216 42.6093 28.7883 43.196C28.0696 43.7827 27.5563 44.5087 27.2483 45.374C26.955 46.2247 26.8083 47.156 26.8083 48.168C26.8083 48.9307 26.8963 49.6493 27.0723 50.324C27.2483 50.9987 27.5123 51.622 27.8643 52.194C28.2163 52.7513 28.693 53.1987 29.2943 53.536C29.9103 53.8733 30.6216 54.042 31.4283 54.042C33.7603 54.042 35.095 52.7073 35.4323 50.038H38.1823ZM45.5673 44.318C47.2979 44.318 48.6766 44.8607 49.7033 45.946C50.7299 47.0313 51.2433 48.4907 51.2433 50.324C51.2433 52.172 50.7299 53.6387 49.7033 54.724C48.6913 55.8093 47.3126 56.352 45.5673 56.352C43.7926 56.352 42.3846 55.8093 41.3433 54.724C40.3019 53.6387 39.7813 52.172 39.7813 50.324C39.7813 48.4907 40.3019 47.0313 41.3433 45.946C42.3993 44.8607 43.8073 44.318 45.5673 44.318ZM47.8553 47.376C47.2979 46.6573 46.5206 46.298 45.5233 46.298C44.5259 46.298 43.7413 46.6573 43.1693 47.376C42.5973 48.0947 42.3113 49.0773 42.3113 50.324C42.3113 51.6 42.5973 52.5973 43.1693 53.316C43.7413 54.0347 44.5333 54.394 45.5453 54.394C46.5279 54.394 47.2979 54.0347 47.8553 53.316C48.4273 52.5827 48.7133 51.578 48.7133 50.302C48.7133 49.0553 48.4273 48.08 47.8553 47.376ZM55.7483 44.648V46.166C56.5109 44.934 57.7429 44.318 59.4443 44.318C61.0136 44.318 62.2676 44.868 63.2063 45.968C64.1449 47.068 64.6143 48.5347 64.6143 50.368C64.6143 52.1573 64.1523 53.5947 63.2283 54.68C62.3189 55.7507 61.1016 56.286 59.5763 56.286C57.9629 56.286 56.7309 55.692 55.8803 54.504V60.202H53.3943V44.648H55.7483ZM58.9383 46.342C57.9556 46.342 57.1856 46.694 56.6283 47.398C56.0709 48.102 55.7923 49.0773 55.7923 50.324C55.7923 51.556 56.0709 52.524 56.6283 53.228C57.2003 53.932 57.9849 54.284 58.9823 54.284C59.9356 54.284 60.6909 53.932 61.2483 53.228C61.8056 52.524 62.0843 51.5707 62.0843 50.368C62.0843 49.136 61.7983 48.1607 61.2263 47.442C60.6689 46.7087 59.9063 46.342 58.9383 46.342ZM76.8095 44.648L72.6075 55.78C72.5635 55.8827 72.4828 56.0953 72.3655 56.418C72.2482 56.7553 72.1675 56.9827 72.1235 57.1C72.0795 57.2173 71.9915 57.4227 71.8595 57.716C71.7422 58.0093 71.6468 58.2147 71.5735 58.332C71.5002 58.4493 71.3902 58.6253 71.2435 58.86C71.0968 59.0947 70.9575 59.2633 70.8255 59.366C70.7082 59.4687 70.5542 59.5933 70.3635 59.74C70.1875 59.9013 70.0042 60.0113 69.8135 60.07C69.6228 60.1433 69.4028 60.202 69.1535 60.246C68.9188 60.3047 68.6622 60.334 68.3835 60.334C67.9142 60.334 67.3348 60.29 66.6455 60.202V58.09C67.1735 58.1927 67.6135 58.244 67.9655 58.244C68.1415 58.244 68.3028 58.2147 68.4495 58.156C68.5962 58.112 68.7282 58.024 68.8455 57.892C68.9628 57.7747 69.0655 57.6573 69.1535 57.54C69.2415 57.4373 69.3222 57.2833 69.3955 57.078C69.4835 56.8873 69.5495 56.7333 69.5935 56.616C69.6375 56.5133 69.6962 56.3447 69.7695 56.11C69.8428 55.8753 69.8868 55.7287 69.9015 55.67L65.5455 44.648H68.2955L71.3315 53.008L74.1915 44.648H76.8095Z" fill="black"/>
</svg>
